# xmcd
#
# Track frame offsets:
#	150
#	18833
#	37070
#	51486
#	69066
#	84620
#	101082
#	117426
#	134879
#	151879
#	165212
#	178862
#	193607
#	209320
#	229241
#	242523
#	255252
#	272519
#
# Disc length: 3889 seconds
#
# Revision: 2
# Processed by: cddbd v1.5.2PL0 Copyright (c) Steve Scherf et al.
# Submitted via: EasyCDDAExtractor 10.0.2.1
#
DISCID=f30f2f12
DTITLE=Various Artist - Radio Country 10-06
DYEAR=2006
DGENRE=Country
TTITLE0=Keith Urban - Once In A Lifetime
TTITLE1=Rascal Flatts - My Wish
TTITLE2=Jimmy Buffett - Bama Breeze
TTITLE3=Kenny Chesney - You Save Me
TTITLE4=Eric Church - Two Pink Lines
TTITLE5=Tim McGraw - My Little Girl
TTITLE6=Lee Ann Womack - Finding My Way Back Home
TTITLE7=Carolyn Dawn Johnson - Taking Back My Brave
TTITLE8=Brad Paisley - She's Everything
TTITLE9=John Anderson - If Her Lovin' Don't Kill Me
TTITLE10=Toby Keith - Crash Here Tonight
TTITLE11=Carrie Underwood - Before He Cheats
TTITLE12=Trent Willmon - So Am I
TTITLE13=Sara Evans - You'll Always Be My Baby
TTITLE14=Ray Scott - I Didn't Come Here To Talk
TTITLE15=Vince Gill - The Reason Why
TTITLE16=Rhett Akins - If Heaven Wasn't So Far Away
TTITLE17=Brian McComas - When It All Comes Floodin' Down
EXTD=
EXTT0=
EXTT1=
EXTT2=
EXTT3=
EXTT4=
EXTT5=
EXTT6=
EXTT7=
EXTT8=
EXTT9=
EXTT10=
EXTT11=
EXTT12=
EXTT13=
EXTT14=
EXTT15=
EXTT16=
EXTT17=
PLAYORDER=
